<svg xmlns="http://www.w3.org/2000/svg" viewBox="0 0 1440 400" width="100%" height="100%">
  <rect width="1440" height="400" fill="#12151A"/>

  <g stroke="#232A34" stroke-width="2" opacity="0.55">
    <line x1="560" y1="46" x2="1400" y2="46"/>
    <line x1="560" y1="116" x2="1400" y2="116"/>
    <line x1="560" y1="186" x2="1400" y2="186"/>
    <line x1="560" y1="256" x2="1400" y2="256"/>
    <line x1="560" y1="326" x2="1400" y2="326"/>
  </g>

  <g transform="translate(80,58) scale(0.78)">
    <rect x="14" y="16" width="16" height="16" rx="4" fill="#3157D9"/>
    <rect x="14" y="42" width="16" height="16" rx="4" fill="#39414C"/>
    <rect x="14" y="68" width="16" height="16" rx="4" fill="#39414C"/>
    <rect x="38" y="16" width="48" height="16" rx="4" fill="none" stroke="#5B7BDE" stroke-width="5"/>
    <rect x="38" y="42" width="40" height="16" rx="4" fill="none" stroke="#454E5A" stroke-width="5"/>
    <rect x="38" y="68" width="30" height="16" rx="4" fill="none" stroke="#454E5A" stroke-width="5"/>
  </g>

  <text x="178" y="122" font-family="'Avenir Next','Century Gothic','Segoe UI',sans-serif" font-size="58" font-weight="800" letter-spacing="-1">
    <tspan fill="#F0EEE8">Tala</tspan><tspan fill="#7C9AF5">DB</tspan>
  </text>

  <text x="1370" y="205" text-anchor="end" font-family="'Avenir Next','Century Gothic','Segoe UI',sans-serif" font-size="42" font-weight="700" fill="#F0EEE8">
    Documents and vectors, on device.
  </text>
  <text x="1370" y="248" text-anchor="end" font-family="'Avenir Next','Century Gothic','Segoe UI',sans-serif" font-size="24" font-weight="500" fill="#8FA6E0">
    The embedded database for the AI era.
  </text>
</svg>
